<?xml version="1.0" encoding="UTF-8"?>
<!DOCTYPE svg PUBLIC "-//W3C//DTD SVG 1.1//EN" "http://www.w3.org/Graphics/SVG/1.1/DTD/svg11.dtd">
<!-- Creator: CorelDRAW X7 -->
<svg xmlns="http://www.w3.org/2000/svg" xml:space="preserve" width="68.4388mm" height="9.8778mm" version="1.1" style="shape-rendering:geometricPrecision; text-rendering:geometricPrecision; image-rendering:optimizeQuality; fill-rule:evenodd; clip-rule:evenodd"
viewBox="0 0 6844 988"
 xmlns:xlink="http://www.w3.org/1999/xlink">
 <defs>
  <style type="text/css">
   <![CDATA[
    .fil0 {fill:#042757;fill-rule:nonzero}
    .fil1 {fill:#ED1C24;fill-rule:nonzero}
   ]]>
  </style>
 </defs>
 <g id="Layer_x0020_1">
  <metadata id="CorelCorpID_0Corel-Layer"/>
  <g id="_1729969057696">
   <path class="fil0" d="M263 698c-56,0 -100,-20 -132,-61l-7 0c5,40 7,63 7,69l0 193 -130 0 0 -686 106 0 18 62 6 0c31,-47 76,-70 135,-70 56,0 100,21 132,65 32,43 48,104 48,181 0,51 -7,95 -22,132 -15,38 -36,66 -64,86 -28,20 -60,29 -97,29zm-39 -389c-32,0 -55,9 -70,29 -15,20 -22,52 -23,98l0 14c0,51 8,87 23,110 15,22 39,33 72,33 59,0 88,-48 88,-144 0,-47 -8,-82 -22,-105 -14,-24 -37,-35 -68,-35zm471 -12c-27,0 -49,9 -65,26 -15,18 -24,42 -27,74l183 0c-1,-32 -9,-56 -25,-74 -16,-17 -38,-26 -66,-26zm18 401c-76,0 -136,-21 -179,-63 -44,-42 -65,-102 -65,-180 0,-80 20,-141 60,-185 40,-43 95,-65 165,-65 68,0 120,19 157,57 38,39 57,91 57,159l0 63 -307 0c1,37 12,66 32,86 21,21 49,32 86,32 29,0 56,-3 82,-9 25,-6 52,-16 80,-29l0 101c-23,11 -47,20 -73,25 -26,6 -57,8 -95,8zm510 -493c18,0 33,1 44,3l-9 122c-11,-2 -24,-4 -39,-4 -41,0 -74,11 -97,32 -23,21 -34,51 -34,89l0 243 -130 0 0 -477 98 0 19 81 7 0c14,-27 34,-48 60,-65 25,-16 52,-24 81,-24zm408 343c0,49 -17,86 -51,112 -34,26 -85,38 -153,38 -34,0 -64,-2 -88,-7 -25,-4 -47,-11 -69,-20l0 -108c24,12 52,21 82,29 30,8 57,11 80,11 47,0 70,-13 70,-41 0,-10 -3,-18 -9,-25 -6,-6 -17,-13 -32,-21 -16,-8 -36,-18 -62,-29 -36,-15 -63,-29 -80,-42 -17,-13 -30,-28 -38,-45 -8,-17 -11,-38 -11,-63 0,-42 16,-75 49,-98 32,-23 79,-34 139,-34 58,0 113,12 167,37l-39 94c-24,-11 -46,-19 -67,-26 -20,-6 -41,-9 -63,-9 -38,0 -57,10 -57,31 0,11 6,22 18,30 12,9 40,21 81,38 37,15 65,29 82,42 17,13 30,28 38,45 8,17 13,38 13,61zm40 -458c0,-42 24,-63 71,-63 47,0 70,21 70,63 0,20 -5,36 -17,47 -12,11 -30,17 -53,17 -47,0 -71,-21 -71,-64zm135 600l-129 0 0 -477 129 0 0 477zm384 0l-25 -65 -4 0c-22,28 -44,47 -67,57 -24,11 -54,16 -91,16 -46,0 -82,-13 -108,-39 -26,-26 -39,-63 -39,-112 0,-50 18,-87 53,-111 35,-24 89,-38 160,-40l82 -3 0 -21c0,-48 -24,-72 -74,-72 -38,0 -83,11 -134,34l-43 -87c55,-29 116,-43 182,-43 64,0 113,14 147,42 34,27 51,70 51,126l0 318 -90 0zm-39 -221l-50 2c-38,1 -66,8 -84,20 -19,13 -28,32 -28,57 0,37 21,55 63,55 30,0 54,-8 72,-26 18,-17 27,-40 27,-69l0 -39zm365 171c13,0 25,-1 36,-3 12,-2 21,-4 28,-6l0 55c-8,3 -19,6 -34,9 -15,2 -28,3 -40,3 -90,0 -135,-47 -135,-142l0 -278 -67 0 0 -34 67 -30 29 -99 41 0 0 108 136 0 0 55 -136 0 0 275c0,28 7,49 20,64 14,15 32,23 55,23zm315 -426c20,0 39,2 56,5l-10 66c-20,-4 -37,-6 -51,-6 -38,0 -70,15 -97,46 -27,30 -40,69 -40,114l0 251 -71 0 0 -467 58 0 8 86 4 0c17,-30 38,-54 62,-70 25,-16 51,-25 81,-25zm357 476l-14 -67 -3 0c-24,29 -47,49 -70,60 -23,10 -52,15 -87,15 -46,0 -82,-12 -108,-35 -27,-24 -40,-58 -40,-102 0,-95 76,-144 226,-149l79 -2 0 -29c0,-37 -7,-64 -23,-81 -16,-18 -41,-26 -76,-26 -39,0 -83,12 -132,35l-21 -54c23,-12 48,-22 75,-29 28,-7 55,-11 82,-11 56,0 97,13 124,37 27,25 40,65 40,119l0 319 -52 0zm-160 -50c44,0 79,-12 104,-36 25,-24 38,-58 38,-102l0 -42 -71 3c-56,2 -97,11 -122,26 -24,16 -37,40 -37,73 0,25 8,45 24,58 15,13 37,20 64,20zm405 50l-177 -467 76 0 100 277c23,65 36,107 40,126l4 0c3,-15 13,-46 29,-94 17,-47 54,-150 112,-309l76 0 -177 467 -83 0zm477 8c-70,0 -124,-21 -164,-63 -40,-42 -60,-100 -60,-175 0,-75 19,-135 56,-179 37,-45 87,-67 149,-67 59,0 105,19 139,58 34,39 51,89 51,152l0 45 -321 0c1,55 15,96 41,125 26,28 63,42 111,42 50,0 100,-10 149,-31l0 63c-25,11 -49,19 -71,23 -22,5 -49,7 -80,7zm-20 -424c-37,0 -67,12 -89,36 -23,25 -36,58 -40,101l244 0c0,-44 -10,-78 -29,-102 -20,-24 -49,-35 -86,-35zm327 416l-71 0 0 -663 71 0 0 663z"/>
   <path class="fil1" d="M4906 690l0 -304c0,-37 -8,-65 -24,-84 -15,-18 -40,-28 -74,-28 -44,0 -76,13 -97,38 -21,26 -32,65 -32,117l0 261 -70 0 0 -304c0,-37 -8,-65 -24,-84 -16,-18 -41,-28 -75,-28 -44,0 -76,14 -97,40 -21,27 -31,70 -31,131l0 245 -70 0 0 -467 57 0 11 64 4 0c13,-23 32,-41 56,-54 25,-12 52,-19 82,-19 73,0 121,27 143,80l3 0c14,-25 34,-44 61,-58 26,-15 56,-22 90,-22 53,0 92,14 119,41 26,27 39,71 39,130l0 305 -71 0zm564 -234c0,76 -19,136 -57,178 -39,43 -91,64 -159,64 -42,0 -79,-9 -111,-29 -33,-20 -58,-48 -75,-84 -18,-37 -27,-80 -27,-129 0,-76 19,-136 58,-178 37,-42 90,-64 158,-64 65,0 117,22 156,65 38,44 57,103 57,177zm-355 0c0,60 12,105 35,136 24,32 59,47 106,47 46,0 81,-15 105,-47 24,-31 36,-76 36,-136 0,-59 -12,-104 -36,-135 -24,-31 -59,-47 -106,-47 -47,0 -81,16 -105,46 -24,30 -35,76 -35,136zm743 234l0 -302c0,-38 -8,-67 -26,-85 -17,-19 -44,-29 -81,-29 -49,0 -85,14 -107,40 -23,26 -35,70 -35,131l0 245 -70 0 0 -467 57 0 12 64 3 0c15,-23 35,-41 61,-54 26,-12 55,-19 87,-19 57,0 99,14 127,41 29,27 43,71 43,130l0 305 -71 0zm358 8c-69,0 -124,-21 -163,-63 -40,-42 -60,-100 -60,-175 0,-75 18,-135 55,-179 37,-45 87,-67 150,-67 58,0 104,19 138,58 34,39 52,89 52,152l0 45 -322 0c1,55 15,96 41,125 27,28 64,42 112,42 50,0 99,-10 149,-31l0 63c-25,11 -49,19 -71,23 -23,5 -50,7 -81,7zm-19 -424c-38,0 -68,12 -90,36 -22,25 -35,58 -39,101l244 0c0,-44 -10,-78 -30,-102 -20,-24 -48,-35 -85,-35zm164 -51l76 0 102 266c23,61 36,105 42,132l3 0c4,-15 12,-40 23,-75 12,-35 51,-142 116,-323l76 0 -201 531c-20,53 -43,90 -69,112 -27,22 -59,33 -98,33 -22,0 -43,-2 -64,-7l0 -57c16,4 33,6 52,6 49,0 84,-28 104,-82l26 -67 -188 -469z"/>
  </g>
  <polygon class="fil1" points="4306,84 6808,84 6808,124 4306,124 "/>
  <polygon class="fil1" points="4306,17 6808,17 6808,57 4306,57 "/>
  <path class="fil0" d="M247 929l0 -127 -48 0 0 -17 114 0 0 17 -47 0 0 127 -19 0zm77 0l0 -144 18 0 0 52c8,-10 19,-15 31,-15 8,0 14,2 20,5 6,3 10,7 12,12 3,6 4,14 4,24l0 66 -18 0 0 -66c0,-9 -2,-15 -5,-19 -4,-4 -10,-7 -17,-7 -5,0 -10,2 -14,5 -5,2 -8,6 -10,11 -2,4 -3,11 -3,19l0 57 -18 0zm177 -34l18 2c-3,11 -8,19 -16,25 -8,6 -18,9 -30,9 -15,0 -27,-5 -36,-14 -9,-9 -13,-23 -13,-40 0,-17 4,-31 13,-40 9,-10 21,-15 35,-15 14,0 26,5 35,14 8,10 13,23 13,40 0,1 0,3 0,5l-78 0c1,12 4,20 10,26 5,6 13,10 21,10 7,0 12,-2 17,-6 5,-3 8,-8 11,-16zm-58 -28l58 0c-1,-9 -3,-16 -7,-20 -5,-7 -13,-10 -21,-10 -9,0 -15,2 -21,8 -5,5 -8,13 -9,22zm150 62l0 -144 19 0 76 113 0 -113 18 0 0 144 -19 0 -76 -113 0 113 -18 0zm208 -34l18 2c-3,11 -8,19 -16,25 -8,6 -18,9 -30,9 -15,0 -27,-5 -36,-14 -9,-9 -13,-23 -13,-40 0,-17 4,-31 13,-40 9,-10 21,-15 35,-15 14,0 26,5 34,14 9,10 14,23 14,40 0,1 0,3 0,5l-78 0c1,12 4,20 10,26 5,6 13,10 21,10 7,0 12,-2 17,-6 5,-3 8,-8 11,-16zm-58 -28l58 0c-1,-9 -3,-16 -7,-20 -5,-7 -13,-10 -22,-10 -8,0 -14,2 -20,8 -5,5 -8,13 -9,22zm80 62l38 -54 -35 -51 21 0 17 25c3,5 5,8 7,11 3,-4 6,-8 8,-11l18 -25 21 0 -35 51 37 54 -21 0 -22 -32 -5 -8 -27 40 -22 0zm174 0l0 -16c-8,12 -19,18 -33,18 -6,0 -12,-1 -17,-3 -5,-3 -9,-6 -12,-9 -2,-4 -4,-8 -5,-13 -1,-4 -1,-9 -1,-17l0 -65 17 0 0 58c0,9 1,16 1,19 2,4 4,8 7,11 4,2 8,4 14,4 5,0 10,-2 15,-4 4,-3 8,-7 10,-11 1,-5 2,-12 2,-21l0 -56 18 0 0 105 -16 0zm30 -31l18 -3c1,7 4,12 8,16 5,4 11,6 19,6 8,0 14,-2 18,-5 4,-4 6,-8 6,-12 0,-4 -2,-7 -5,-9 -3,-2 -9,-4 -18,-6 -13,-4 -22,-7 -27,-9 -5,-2 -9,-6 -12,-10 -2,-4 -4,-9 -4,-14 0,-4 1,-9 4,-13 2,-4 5,-7 8,-10 3,-2 7,-3 11,-5 5,-1 10,-2 16,-2 8,0 15,1 21,4 6,2 11,5 14,9 3,4 5,10 6,17l-17 2c-1,-5 -3,-10 -7,-13 -4,-3 -9,-4 -16,-4 -8,0 -14,1 -17,4 -4,2 -6,6 -6,9 0,2 1,4 3,6 1,2 3,4 6,5 2,1 7,2 16,5 12,3 21,6 26,8 5,2 9,5 12,9 3,4 4,9 4,15 0,6 -2,12 -5,17 -4,5 -9,9 -15,12 -7,3 -14,4 -22,4 -14,0 -24,-3 -31,-8 -7,-6 -12,-14 -14,-25zm151 -21c0,-20 5,-34 16,-43 9,-8 20,-12 33,-12 14,0 26,5 35,14 9,10 13,23 13,39 0,14 -2,24 -6,32 -4,7 -9,13 -17,18 -8,4 -16,6 -25,6 -15,0 -27,-5 -36,-14 -9,-9 -13,-23 -13,-40zm18 0c0,13 3,23 9,30 5,6 13,10 22,10 8,0 16,-4 22,-10 5,-7 8,-17 8,-31 0,-13 -3,-23 -8,-29 -6,-7 -14,-10 -22,-10 -9,0 -17,3 -22,10 -6,6 -9,16 -9,30zm98 52l0 -91 -16 0 0 -14 16 0 0 -11c0,-7 1,-12 2,-15 1,-5 4,-9 9,-11 4,-3 10,-5 18,-5 5,0 10,1 16,2l-2 16c-4,-1 -8,-1 -11,-1 -5,0 -9,1 -11,3 -2,2 -4,7 -4,13l0 9 21 0 0 14 -20 0 0 91 -18 0zm136 0l0 -127 -47 0 0 -17 114 0 0 17 -48 0 0 127 -19 0zm49 -52c0,-20 5,-34 16,-43 9,-8 20,-12 33,-12 14,0 26,5 35,14 9,10 14,23 14,39 0,14 -3,24 -7,32 -4,7 -9,13 -17,18 -8,4 -16,6 -25,6 -15,0 -27,-5 -36,-14 -9,-9 -13,-23 -13,-40zm18 0c0,13 3,23 9,30 5,6 13,10 22,10 8,0 16,-4 22,-10 5,-7 8,-17 8,-31 0,-13 -3,-23 -8,-29 -6,-7 -14,-10 -22,-10 -9,0 -17,3 -22,10 -6,6 -9,16 -9,30zm162 52l0 -16c-8,12 -19,18 -33,18 -6,0 -12,-1 -17,-3 -6,-3 -10,-6 -12,-9 -3,-4 -5,-8 -6,-13 0,-4 -1,-9 -1,-17l0 -65 18 0 0 58c0,9 0,16 1,19 1,4 4,8 7,11 4,2 8,4 13,4 6,0 11,-2 15,-4 5,-3 8,-7 10,-11 2,-5 3,-12 3,-21l0 -56 18 0 0 105 -16 0zm37 0l0 -105 16 0 0 16c4,-7 8,-12 11,-14 3,-3 7,-4 11,-4 6,0 12,2 19,6l-7 16c-4,-2 -8,-3 -13,-3 -3,0 -7,1 -10,3 -3,2 -5,6 -6,10 -2,6 -3,13 -3,20l0 55 -18 0zm61 -124l0 -20 17 0 0 20 -17 0zm0 124l0 -105 17 0 0 105 -17 0zm31 -31l17 -3c1,7 4,12 8,16 5,4 11,6 19,6 8,0 14,-2 18,-5 4,-4 6,-8 6,-12 0,-4 -2,-7 -5,-9 -3,-2 -9,-4 -18,-6 -13,-4 -22,-7 -27,-9 -5,-2 -9,-6 -11,-10 -3,-4 -4,-9 -4,-14 0,-4 1,-9 3,-13 2,-4 5,-7 9,-10 2,-2 6,-3 11,-5 5,-1 10,-2 15,-2 8,0 15,1 22,4 6,2 10,5 13,9 3,4 5,10 6,17l-17 2c-1,-5 -3,-10 -7,-13 -4,-3 -9,-4 -16,-4 -8,0 -14,1 -17,4 -3,2 -5,6 -5,9 0,2 0,4 2,6 1,2 4,4 7,5 1,1 7,2 15,5 13,3 21,6 26,8 5,2 9,5 12,9 3,4 4,9 4,15 0,6 -1,12 -5,17 -3,5 -8,9 -15,12 -6,3 -14,4 -22,4 -13,0 -24,-3 -31,-8 -7,-6 -11,-14 -13,-25zm101 31l0 -105 16 0 0 15c3,-5 7,-9 13,-12 5,-3 11,-5 18,-5 8,0 14,2 19,5 5,3 9,8 11,13 8,-12 19,-18 32,-18 10,0 18,3 24,9 6,6 8,14 8,26l0 72 -17 0 0 -66c0,-7 -1,-12 -2,-15 -1,-3 -3,-6 -6,-8 -3,-2 -7,-3 -11,-3 -7,0 -13,3 -18,8 -5,5 -8,13 -8,23l0 61 -17 0 0 -68c0,-8 -2,-14 -5,-18 -2,-4 -7,-6 -14,-6 -5,0 -9,2 -14,4 -4,3 -7,7 -9,12 -2,5 -3,12 -3,22l0 54 -17 0zm165 0l0 -20 21 0 0 20c0,7 -2,13 -4,18 -3,4 -7,8 -13,10l-5 -7c4,-2 7,-4 8,-7 2,-4 3,-8 3,-14l-10 0zm104 0l0 -144 97 0 0 17 -78 0 0 45 68 0 0 16 -68 0 0 66 -19 0zm113 -124l0 -20 18 0 0 20 -18 0zm0 124l0 -105 18 0 0 105 -18 0zm39 0l0 -105 15 0 0 15c8,-11 19,-17 34,-17 6,0 12,1 17,4 5,2 9,5 12,8 2,4 4,8 5,14 1,3 1,9 1,17l0 64 -17 0 0 -64c0,-7 -1,-12 -2,-16 -2,-3 -4,-6 -8,-8 -3,-2 -7,-4 -12,-4 -8,0 -14,3 -20,8 -5,4 -8,14 -8,27l0 57 -17 0zm173 -13c-6,5 -13,9 -19,12 -6,2 -12,3 -19,3 -12,0 -21,-3 -27,-8 -6,-6 -9,-13 -9,-22 0,-5 1,-9 3,-14 3,-4 6,-7 10,-10 3,-2 8,-4 12,-6 4,-1 9,-1 16,-2 14,-2 25,-4 32,-6 0,-3 0,-4 0,-5 0,-7 -2,-12 -5,-15 -5,-4 -12,-6 -20,-6 -9,0 -15,1 -19,4 -4,3 -7,8 -9,16l-17 -3c1,-7 4,-13 8,-18 3,-4 9,-8 15,-10 7,-3 15,-4 24,-4 9,0 16,1 22,3 5,2 10,5 12,8 3,3 5,7 6,12 0,3 1,9 1,17l0 23c0,16 0,27 1,31 0,5 2,9 4,13l-18 0c-2,-4 -3,-8 -4,-13zm-1 -39c-7,2 -16,4 -29,6 -8,1 -13,2 -16,4 -3,1 -5,3 -7,5 -1,3 -2,6 -2,9 0,4 2,8 5,11 4,4 9,5 16,5 7,0 13,-1 18,-4 5,-3 9,-7 12,-12 2,-4 3,-10 3,-18l0 -6zm38 52l0 -105 16 0 0 15c8,-11 19,-17 33,-17 7,0 12,1 18,4 5,2 9,5 12,8 2,4 4,8 5,14 1,3 1,9 1,17l0 64 -18 0 0 -64c0,-7 0,-12 -2,-16 -1,-3 -4,-6 -7,-8 -4,-2 -8,-4 -12,-4 -8,0 -14,3 -20,8 -5,4 -8,14 -8,27l0 57 -18 0zm174 -38l17 2c-2,12 -7,21 -14,28 -8,7 -18,10 -29,10 -14,0 -26,-5 -35,-14 -8,-9 -13,-23 -13,-40 0,-11 2,-21 6,-30 4,-8 9,-14 17,-18 8,-5 16,-7 25,-7 11,0 21,3 28,9 7,6 12,14 14,24l-18 3c-1,-7 -4,-12 -8,-16 -4,-4 -9,-5 -15,-5 -9,0 -17,3 -22,9 -6,7 -8,17 -8,31 0,14 2,24 8,30 5,6 12,10 21,10 7,0 12,-3 17,-7 5,-4 8,-11 9,-19zm97 4l18 2c-3,11 -8,19 -16,25 -8,6 -17,9 -30,9 -15,0 -27,-5 -36,-14 -9,-9 -13,-23 -13,-40 0,-17 4,-31 13,-40 9,-10 21,-15 35,-15 14,0 26,5 35,14 8,10 13,23 13,40 0,1 0,3 0,5l-78 0c1,12 4,20 10,26 5,6 13,10 21,10 7,0 12,-2 17,-6 5,-3 8,-8 11,-16zm-58 -28l58 0c-1,-9 -3,-16 -7,-20 -5,-7 -12,-10 -21,-10 -9,0 -15,2 -21,8 -5,5 -8,13 -9,22zm216 49c-6,5 -13,9 -19,12 -6,2 -12,3 -19,3 -12,0 -21,-3 -27,-8 -6,-6 -9,-13 -9,-22 0,-5 1,-9 3,-14 3,-4 6,-7 10,-10 3,-2 8,-4 12,-6 4,-1 9,-1 16,-2 14,-2 25,-4 32,-6 0,-3 0,-4 0,-5 0,-7 -2,-12 -5,-15 -5,-4 -12,-6 -20,-6 -9,0 -15,1 -19,4 -4,3 -7,8 -9,16l-17 -3c1,-7 4,-13 8,-18 3,-4 9,-8 15,-10 7,-3 15,-4 24,-4 9,0 16,1 22,3 5,2 10,5 12,8 3,3 5,7 6,12 0,3 1,9 1,17l0 23c0,16 0,27 1,31 0,5 2,9 4,13l-18 0c-2,-4 -3,-8 -4,-13zm-1 -39c-7,2 -16,4 -29,6 -8,1 -13,2 -16,4 -3,1 -5,3 -7,5 -1,3 -2,6 -2,9 0,4 2,8 5,11 4,4 9,5 16,5 7,0 13,-1 18,-4 5,-3 9,-7 12,-12 2,-4 3,-10 3,-18l0 -6zm38 52l0 -105 16 0 0 15c8,-11 19,-17 33,-17 7,0 12,1 18,4 5,2 9,5 12,8 2,4 4,8 5,14 1,3 1,9 1,17l0 64 -18 0 0 -64c0,-7 0,-12 -2,-16 -1,-3 -4,-6 -7,-8 -4,-2 -8,-4 -12,-4 -8,0 -14,3 -20,8 -5,4 -8,14 -8,27l0 57 -18 0zm173 0l0 -13c-7,10 -16,15 -29,15 -8,0 -16,-2 -23,-7 -7,-4 -12,-11 -16,-19 -4,-8 -6,-18 -6,-28 0,-11 2,-20 5,-29 4,-8 9,-15 16,-19 7,-5 15,-7 23,-7 6,0 12,2 17,4 5,3 9,6 12,11l0 -52 18 0 0 144 -17 0zm-56 -52c0,13 3,23 9,30 5,6 12,10 20,10 7,0 14,-4 19,-10 6,-6 8,-16 8,-29 0,-14 -2,-24 -8,-31 -5,-7 -12,-10 -20,-10 -8,0 -15,3 -20,9 -5,7 -8,17 -8,31zm185 52l0 -127 -47 0 0 -17 114 0 0 17 -48 0 0 127 -19 0zm127 -34l18 2c-3,11 -8,19 -16,25 -8,6 -18,9 -30,9 -15,0 -27,-5 -36,-14 -9,-9 -14,-23 -14,-40 0,-17 5,-31 14,-40 9,-10 21,-15 35,-15 14,0 25,5 34,14 9,10 13,23 13,40 0,1 0,3 0,5l-77 0c0,12 3,20 9,26 6,6 13,10 22,10 7,0 12,-2 17,-6 4,-3 8,-8 11,-16zm-58 -28l58 0c-1,-9 -3,-16 -7,-20 -6,-7 -13,-10 -22,-10 -8,0 -15,2 -20,8 -6,5 -9,13 -9,22zm160 24l17 2c-2,12 -7,21 -14,28 -8,7 -18,10 -29,10 -14,0 -26,-5 -35,-14 -8,-9 -13,-23 -13,-40 0,-11 2,-21 6,-30 4,-8 9,-14 17,-18 8,-5 16,-7 25,-7 11,0 21,3 28,9 7,6 12,14 14,24l-18 3c-1,-7 -4,-12 -8,-16 -4,-4 -9,-5 -15,-5 -9,0 -17,3 -22,9 -6,7 -8,17 -8,31 0,14 2,24 8,30 5,6 12,10 21,10 7,0 12,-3 17,-7 5,-4 8,-11 9,-19zm26 38l0 -144 17 0 0 52c9,-10 19,-15 32,-15 7,0 14,2 20,5 5,3 9,7 12,12 2,6 3,14 3,24l0 66 -17 0 0 -66c0,-9 -2,-15 -6,-19 -4,-4 -9,-7 -16,-7 -5,0 -10,2 -15,5 -4,2 -8,6 -10,11 -2,4 -3,11 -3,19l0 57 -17 0zm105 0l0 -105 16 0 0 15c8,-11 19,-17 33,-17 6,0 12,1 17,4 6,2 10,5 12,8 3,4 5,8 6,14 0,3 1,9 1,17l0 64 -18 0 0 -64c0,-7 -1,-12 -2,-16 -1,-3 -4,-6 -7,-8 -4,-2 -8,-4 -13,-4 -7,0 -14,3 -19,8 -6,4 -8,14 -8,27l0 57 -18 0zm99 -52c0,-20 5,-34 16,-43 9,-8 20,-12 33,-12 14,0 26,5 35,14 9,10 14,23 14,39 0,14 -2,24 -6,32 -5,7 -10,13 -18,18 -8,4 -16,6 -25,6 -15,0 -27,-5 -36,-14 -9,-9 -13,-23 -13,-40zm18 0c0,13 3,23 9,30 6,6 13,10 22,10 9,0 16,-4 22,-10 6,-7 8,-17 8,-31 0,-13 -3,-23 -8,-29 -6,-7 -14,-10 -22,-10 -9,0 -16,3 -22,10 -6,6 -9,16 -9,30zm93 52l0 -144 18 0 0 144 -18 0zm32 -52c0,-20 6,-34 16,-43 9,-8 20,-12 33,-12 15,0 26,5 35,14 10,10 14,23 14,39 0,14 -2,24 -6,32 -4,7 -10,13 -18,18 -7,4 -16,6 -25,6 -14,0 -26,-5 -35,-14 -9,-9 -14,-23 -14,-40zm18 0c0,13 3,23 9,30 6,6 13,10 22,10 9,0 16,-4 22,-10 6,-7 9,-17 9,-31 0,-13 -3,-23 -9,-29 -6,-7 -13,-10 -22,-10 -9,0 -16,3 -22,10 -6,6 -9,16 -9,30zm91 60l17 3c1,5 3,9 6,11 5,4 11,5 18,5 8,0 15,-1 19,-5 5,-3 8,-7 9,-13 1,-4 2,-11 1,-23 -7,9 -17,14 -28,14 -15,0 -26,-5 -34,-16 -8,-10 -12,-22 -12,-37 0,-10 2,-19 6,-27 3,-9 9,-15 15,-20 7,-5 15,-7 25,-7 12,0 22,5 30,15l0 -13 16 0 0 91c0,16 -1,27 -5,34 -3,7 -8,12 -15,16 -7,4 -16,6 -27,6 -12,0 -22,-3 -30,-8 -8,-6 -11,-14 -11,-26zm15 -62c0,13 2,23 8,30 5,6 12,9 20,9 8,0 15,-3 21,-9 5,-6 8,-16 8,-30 0,-12 -3,-22 -9,-28 -5,-7 -12,-10 -20,-10 -8,0 -15,3 -20,9 -6,7 -8,16 -8,29zm93 94l-2 -16c4,1 7,1 10,1 4,0 7,-1 9,-2 3,-1 5,-3 6,-5 1,-2 3,-6 6,-14 0,0 0,-2 1,-4l-39 -105 19 0 21 61c3,7 6,15 8,24 2,-8 4,-16 7,-24l22 -61 18 0 -39 107c-5,11 -8,19 -10,23 -3,6 -7,10 -11,13 -4,3 -9,4 -15,4 -3,0 -7,-1 -11,-2z"/>
 </g>
</svg>
