<?xml version="1.0" encoding="UTF-8"?>
<!DOCTYPE svg PUBLIC "-//W3C//DTD SVG 1.1//EN" "http://www.w3.org/Graphics/SVG/1.1/DTD/svg11.dtd">
<!-- Creator: CorelDRAW X7 -->
<svg xmlns="http://www.w3.org/2000/svg" xml:space="preserve" width="69.147mm" height="9.781mm" version="1.1" style="shape-rendering:geometricPrecision; text-rendering:geometricPrecision; image-rendering:optimizeQuality; fill-rule:evenodd; clip-rule:evenodd"
viewBox="0 0 6915 978"
 xmlns:xlink="http://www.w3.org/1999/xlink">
 <defs>
  <style type="text/css">
   <![CDATA[
    .fil1 {fill:#ED1C24;fill-rule:nonzero}
    .fil0 {fill:white;fill-rule:nonzero}
   ]]>
  </style>
 </defs>
 <g id="Layer_x0020_1">
  <metadata id="CorelCorpID_0Corel-Layer"/>
  <g id="_2519674947392">
   <path class="fil0" d="M262 696c-56,0 -100,-21 -132,-61l-7 0c5,40 7,63 7,69l0 192 -130 0 0 -685 106 0 18 62 6 0c30,-47 75,-71 135,-71 56,0 100,22 132,65 32,44 48,104 48,181 0,51 -8,95 -23,133 -15,37 -36,66 -63,85 -28,20 -60,30 -97,30zm-39 -390c-32,0 -55,10 -70,29 -15,20 -23,53 -23,98l0 14c0,51 8,88 23,110 15,22 39,33 72,33 58,0 87,-48 87,-144 0,-46 -7,-81 -21,-105 -15,-23 -37,-35 -68,-35zm475 -11c-28,0 -49,8 -65,26 -16,17 -25,42 -27,74l182 0c0,-32 -8,-57 -25,-74 -16,-18 -38,-26 -65,-26zm18 401c-77,0 -137,-21 -180,-64 -43,-42 -65,-102 -65,-179 0,-80 20,-142 60,-185 40,-44 95,-66 166,-66 67,0 119,19 157,58 37,38 56,91 56,158l0 63 -307 0c1,37 12,66 33,87 20,21 49,31 86,31 29,0 56,-3 81,-9 26,-6 53,-15 80,-29l0 101c-22,11 -47,20 -73,26 -25,5 -57,8 -94,8zm514 -494c17,0 32,1 44,4l-10 122c-11,-3 -23,-4 -38,-4 -42,0 -74,10 -97,31 -23,22 -35,52 -35,90l0 242 -130 0 0 -476 99 0 19 80 6 0c15,-27 35,-48 60,-64 25,-17 52,-25 82,-25zm411 344c0,49 -17,86 -51,111 -34,26 -85,39 -152,39 -35,0 -64,-3 -89,-7 -24,-5 -47,-12 -68,-21l0 -107c24,11 51,21 81,28 30,8 57,12 80,12 47,0 71,-14 71,-41 0,-10 -3,-19 -10,-25 -6,-7 -17,-14 -32,-22 -15,-8 -36,-17 -61,-28 -37,-16 -64,-30 -81,-43 -17,-13 -30,-28 -38,-45 -7,-17 -11,-38 -11,-62 0,-42 16,-75 49,-98 33,-23 79,-35 139,-35 58,0 113,13 168,37l-39 94c-24,-10 -46,-19 -67,-25 -21,-7 -42,-10 -64,-10 -38,0 -57,10 -57,31 0,12 6,22 18,30 13,9 40,22 82,38 37,15 64,30 81,43 18,13 30,28 39,45 8,17 12,37 12,61zm44 -458c0,-43 24,-64 71,-64 47,0 71,21 71,64 0,20 -6,35 -18,47 -12,11 -30,17 -53,17 -47,0 -71,-22 -71,-64zm136 599l-130 0 0 -476 130 0 0 476zm387 0l-25 -65 -4 0c-22,28 -44,47 -67,58 -23,10 -54,16 -91,16 -46,0 -81,-13 -108,-39 -26,-27 -39,-64 -39,-112 0,-51 18,-88 53,-112 35,-24 89,-37 160,-40l82 -2 0 -21c0,-49 -24,-73 -74,-73 -38,0 -83,12 -134,35l-43 -88c55,-28 116,-43 182,-43 64,0 113,14 147,42 34,28 51,70 51,127l0 317 -90 0zm-39 -221l-50 2c-38,1 -66,8 -84,21 -19,12 -28,31 -28,57 0,36 21,55 63,55 30,0 54,-9 72,-26 18,-18 27,-41 27,-69l0 -40zm369 171c13,0 25,-1 36,-2 12,-2 21,-4 28,-6l0 54c-8,4 -19,7 -34,9 -15,3 -28,4 -40,4 -90,0 -135,-48 -135,-143l0 -278 -67 0 0 -34 67 -29 29 -100 41 0 0 108 136 0 0 55 -136 0 0 275c0,28 7,50 20,65 14,15 32,22 55,22zm319 -425c20,0 39,1 55,5l-9 66c-20,-5 -37,-7 -52,-7 -37,0 -70,16 -96,46 -27,31 -41,69 -41,115l0 250 -70 0 0 -467 58 0 8 87 4 0c17,-31 38,-54 62,-71 25,-16 51,-24 81,-24zm361 475l-14 -66 -4 0c-23,29 -46,49 -69,59 -24,11 -52,16 -87,16 -46,0 -82,-12 -109,-36 -26,-24 -39,-58 -39,-102 0,-94 75,-144 226,-148l79 -3 0 -29c0,-36 -8,-63 -23,-81 -16,-17 -41,-26 -76,-26 -39,0 -83,12 -132,36l-22 -54c23,-13 48,-23 76,-30 27,-7 55,-10 82,-10 56,0 97,12 124,37 27,24 40,64 40,118l0 319 -52 0zm-160 -50c44,0 79,-12 104,-36 25,-24 37,-58 37,-101l0 -42 -70 3c-56,2 -97,10 -122,26 -25,15 -37,39 -37,72 0,26 8,45 23,58 16,14 37,20 65,20zm409 50l-178 -467 76 0 101 277c22,65 36,107 40,126l3 0c3,-15 13,-46 30,-93 16,-47 54,-151 111,-310l76 0 -177 467 -82 0zm480 9c-69,0 -123,-21 -163,-63 -40,-42 -60,-101 -60,-175 0,-76 18,-135 55,-180 37,-44 87,-66 150,-66 58,0 104,19 138,57 34,39 52,90 52,153l0 44 -322 0c2,55 15,97 42,125 26,29 63,43 111,43 50,0 99,-11 149,-32l0 63c-25,11 -49,19 -71,24 -23,4 -50,7 -81,7zm-19 -425c-38,0 -68,12 -90,37 -22,24 -35,58 -39,101l244 0c0,-45 -10,-79 -30,-102 -20,-24 -48,-36 -85,-36zm330 416l-70 0 0 -663 70 0 0 663z"/>
   <path class="fil1" d="M4951 687l0 -304c0,-37 -7,-65 -23,-83 -16,-19 -41,-28 -74,-28 -44,0 -77,13 -98,38 -21,25 -31,64 -31,116l0 261 -71 0 0 -304c0,-37 -8,-65 -24,-83 -16,-19 -41,-28 -75,-28 -44,0 -76,13 -97,40 -20,26 -31,70 -31,130l0 245 -70 0 0 -467 57 0 12 64 3 0c13,-23 32,-40 57,-53 24,-13 51,-19 81,-19 73,0 121,26 143,79l3 0c14,-24 35,-44 61,-58 26,-14 56,-21 90,-21 53,0 93,13 119,40 26,27 39,71 39,131l0 304 -71 0zm568 -234c0,77 -19,136 -57,179 -38,42 -91,64 -159,64 -42,0 -79,-10 -111,-30 -32,-19 -57,-47 -75,-84 -18,-37 -27,-80 -27,-129 0,-76 20,-135 58,-178 38,-42 90,-63 158,-63 65,0 117,21 156,65 38,43 57,102 57,176zm-355 0c0,60 12,105 36,137 23,31 58,46 105,46 46,0 81,-15 105,-46 24,-31 36,-77 36,-137 0,-59 -12,-104 -36,-135 -24,-31 -59,-46 -106,-46 -46,0 -81,15 -105,45 -23,31 -35,76 -35,136zm747 234l0 -302c0,-38 -8,-66 -26,-85 -17,-19 -44,-28 -81,-28 -49,0 -85,13 -107,39 -23,27 -35,71 -35,131l0 245 -70 0 0 -467 57 0 12 64 3 0c15,-23 35,-41 61,-53 26,-13 55,-19 87,-19 57,0 99,13 127,40 29,27 43,71 43,131l0 304 -71 0zm362 9c-69,0 -124,-21 -164,-63 -39,-42 -59,-101 -59,-175 0,-76 18,-135 55,-180 37,-44 87,-66 149,-66 59,0 105,19 139,57 34,39 51,90 51,153l0 44 -321 0c1,55 15,97 41,125 27,29 64,43 111,43 51,0 100,-11 149,-32l0 63c-25,11 -48,19 -71,24 -22,4 -49,7 -80,7zm-19 -425c-38,0 -68,12 -90,37 -22,24 -35,58 -39,101l244 0c0,-45 -10,-79 -30,-102 -20,-24 -49,-36 -85,-36zm168 -51l76 0 102 266c22,61 36,105 42,132l3 0c4,-15 11,-39 23,-74 12,-35 51,-143 116,-324l76 0 -201 532c-20,52 -43,89 -70,111 -26,22 -59,33 -97,33 -22,0 -43,-2 -64,-7l0 -56c15,3 33,5 52,5 49,0 83,-27 104,-82l26 -66 -188 -470z"/>
   <path class="fil0" d="M252 929l-10 0 0 -137 -48 0 0 -9 106 0 0 9 -48 0 0 137zm136 0l0 -71c0,-10 -2,-18 -7,-23 -4,-5 -11,-8 -21,-8 -13,0 -22,3 -28,10 -7,7 -10,17 -10,32l0 60 -9 0 0 -156 9 0 0 50 0 14 1 0c4,-7 9,-11 15,-14 6,-3 14,-5 23,-5 25,0 37,13 37,40l0 71 -10 0zm83 2c-16,0 -28,-5 -37,-15 -9,-9 -13,-23 -13,-41 0,-17 4,-31 13,-41 8,-11 20,-16 34,-16 13,0 23,5 30,14 8,8 12,20 12,36l0 8 -79 0c0,15 4,26 11,34 6,8 16,12 29,12 6,0 12,0 16,-1 5,-1 11,-3 18,-6l0 9c-6,3 -12,5 -17,6 -5,1 -11,1 -17,1zm-3 -104c-10,0 -19,3 -25,10 -6,7 -10,17 -11,30l67 0c0,-13 -3,-22 -8,-30 -6,-7 -13,-10 -23,-10zm227 102l-10 0 -87 -130 0 0c0,16 1,27 1,35l0 95 -10 0 0 -146 10 0 87 129 0 0c0,-12 -1,-23 -1,-34l0 -95 10 0 0 146zm77 2c-16,0 -28,-5 -37,-15 -9,-9 -13,-23 -13,-41 0,-17 4,-31 12,-41 9,-11 20,-16 35,-16 13,0 23,5 30,14 8,8 11,20 11,36l0 8 -78 0c0,15 4,26 11,34 6,8 16,12 29,12 6,0 11,0 16,-1 5,-1 11,-3 18,-6l0 9c-6,3 -12,5 -17,6 -5,1 -11,1 -17,1zm-3 -104c-11,0 -19,3 -25,10 -7,7 -10,17 -11,30l67 0c0,-13 -3,-22 -8,-30 -6,-7 -13,-10 -23,-10zm88 46l-38 -53 11 0 33 46 32 -46 11 0 -38 53 40 56 -11 0 -34 -49 -35 49 -11 0 40 -56zm77 -53l0 71c0,11 3,19 7,24 5,4 12,7 22,7 13,0 22,-3 28,-10 6,-6 9,-17 9,-32l0 -60 10 0 0 109 -8 0 -2 -15 -1 0c-7,11 -19,17 -37,17 -25,0 -37,-13 -37,-40l0 -71 9 0zm174 81c0,9 -4,17 -11,22 -8,5 -18,8 -32,8 -14,0 -26,-2 -34,-7l0 -10c10,5 22,8 34,8 11,0 19,-2 25,-6 5,-3 8,-8 8,-14 0,-5 -2,-10 -7,-14 -4,-3 -11,-7 -22,-11 -10,-4 -18,-7 -22,-10 -5,-3 -8,-6 -10,-9 -3,-4 -4,-8 -4,-13 0,-9 4,-15 11,-20 6,-4 16,-7 28,-7 12,0 23,2 34,7l-4 9c-11,-5 -21,-7 -30,-7 -9,0 -16,2 -21,5 -5,3 -8,7 -8,12 0,5 2,10 6,13 4,4 12,8 24,12 10,3 17,7 21,9 5,3 8,6 10,10 3,4 4,8 4,13zm165 -27c0,18 -5,32 -13,42 -9,10 -21,15 -36,15 -9,0 -18,-2 -25,-7 -7,-5 -13,-11 -17,-20 -4,-8 -6,-18 -6,-30 0,-17 5,-31 13,-41 9,-10 21,-15 36,-15 15,0 26,5 35,15 8,10 13,24 13,41zm-86 0c0,15 3,27 10,35 6,9 15,13 28,13 12,0 21,-4 27,-13 7,-8 10,-20 10,-35 0,-15 -3,-26 -10,-34 -6,-9 -16,-13 -28,-13 -12,0 -21,4 -27,13 -7,8 -10,19 -10,34zm150 -45l-26 0 0 100 -10 0 0 -100 -20 0 0 -6 20 -4 0 -8c0,-13 3,-23 8,-29 5,-7 13,-10 24,-10 6,0 12,1 18,3l-3 8c-5,-1 -10,-2 -15,-2 -8,0 -14,2 -17,7 -3,4 -5,12 -5,22l0 10 26 0 0 9zm108 100l-10 0 0 -137 -47 0 0 -9 105 0 0 9 -48 0 0 137zm137 -55c0,18 -5,32 -13,42 -9,10 -21,15 -36,15 -9,0 -18,-2 -25,-7 -7,-5 -13,-11 -17,-20 -4,-8 -6,-18 -6,-30 0,-17 5,-31 13,-41 9,-10 21,-15 36,-15 15,0 26,5 35,15 8,10 13,24 13,41zm-86 0c0,15 3,27 10,35 6,9 15,13 27,13 12,0 22,-4 28,-13 7,-8 10,-20 10,-35 0,-15 -3,-26 -10,-34 -6,-9 -16,-13 -28,-13 -12,0 -21,4 -27,13 -7,8 -10,19 -10,34zm118 -54l0 71c0,11 2,19 7,24 5,4 12,7 21,7 13,0 23,-3 29,-10 6,-6 9,-17 9,-32l0 -60 10 0 0 109 -9 0 -1 -15 -1 0c-7,11 -20,17 -38,17 -24,0 -37,-13 -37,-40l0 -71 10 0zm149 -2c4,0 9,1 15,2l-2 9c-5,-1 -10,-2 -14,-2 -10,0 -17,4 -23,12 -6,8 -9,18 -9,30l0 60 -10 0 0 -109 8 0 1 20 1 0c5,-8 9,-14 14,-17 5,-3 12,-5 19,-5zm40 111l-10 0 0 -109 10 0 0 109zm-11 -139c0,-6 2,-10 6,-10 2,0 4,1 5,3 1,2 2,4 2,7 0,3 -1,5 -2,7 -1,2 -3,3 -5,3 -4,0 -6,-3 -6,-10zm109 111c0,9 -4,17 -11,22 -8,5 -18,8 -32,8 -14,0 -26,-2 -34,-7l0 -10c11,5 22,8 34,8 11,0 19,-2 25,-6 5,-3 8,-8 8,-14 0,-5 -2,-10 -6,-14 -5,-3 -12,-7 -22,-11 -11,-4 -19,-7 -23,-10 -5,-3 -8,-6 -10,-9 -2,-4 -4,-8 -4,-13 0,-9 4,-15 11,-20 7,-4 16,-7 28,-7 12,0 23,2 34,7l-4 9c-11,-5 -21,-7 -30,-7 -9,0 -16,2 -21,5 -5,3 -8,7 -8,12 0,5 2,10 7,13 4,4 11,8 23,12 10,3 17,7 22,9 4,3 7,6 10,10 2,4 3,8 3,13zm158 28l0 -71c0,-11 -3,-19 -7,-24 -4,-4 -10,-7 -19,-7 -11,0 -19,3 -24,9 -6,7 -8,16 -8,29l0 64 -10 0 0 -74c0,-19 -9,-28 -26,-28 -11,0 -19,3 -25,10 -5,7 -7,17 -7,32l0 60 -10 0 0 -109 8 0 2 15 1 0c3,-5 7,-9 12,-12 6,-3 12,-5 19,-5 17,0 28,7 33,19l0 0c4,-6 8,-11 14,-14 6,-3 13,-5 21,-5 12,0 20,3 26,10 6,6 9,16 9,30l0 71 -9 0zm50 -24l1 2c-5,18 -11,34 -18,48l-6 0c5,-18 9,-35 11,-50l12 0zm92 24l-10 0 0 -146 80 0 0 9 -70 0 0 62 66 0 0 10 -66 0 0 65zm94 0l-10 0 0 -109 10 0 0 109zm-12 -139c0,-6 3,-10 7,-10 2,0 3,1 5,3 1,2 1,4 1,7 0,3 0,5 -1,7 -2,2 -3,3 -5,3 -4,0 -7,-3 -7,-10zm118 139l0 -71c0,-10 -3,-18 -7,-23 -5,-5 -12,-8 -22,-8 -13,0 -22,3 -28,10 -6,7 -9,17 -9,32l0 60 -10 0 0 -109 8 0 2 15 1 0c7,-11 19,-17 38,-17 24,0 36,13 36,40l0 71 -9 0zm104 0l-2 -17 -1 0c-5,7 -11,12 -17,15 -5,3 -12,4 -20,4 -11,0 -19,-3 -25,-8 -6,-6 -9,-13 -9,-23 0,-11 4,-19 13,-25 9,-6 22,-9 39,-9l20 -1 0 -7c0,-10 -2,-18 -6,-23 -4,-5 -11,-8 -20,-8 -10,0 -21,3 -32,8l-3 -8c12,-6 23,-9 35,-9 12,0 21,3 27,10 6,6 9,16 9,29l0 72 -8 0zm-40 -7c12,0 21,-3 28,-10 7,-7 10,-16 10,-28l0 -10 -19 0c-15,1 -26,4 -33,8 -6,4 -9,10 -9,18 0,7 2,13 6,16 4,4 10,6 17,6zm153 7l0 -71c0,-10 -3,-18 -7,-23 -5,-5 -12,-8 -22,-8 -13,0 -22,3 -28,10 -6,7 -9,17 -9,32l0 60 -10 0 0 -109 8 0 2 15 1 0c7,-11 19,-17 37,-17 25,0 37,13 37,40l0 71 -9 0zm82 2c-16,0 -28,-5 -37,-15 -9,-10 -13,-23 -13,-41 0,-18 5,-32 14,-42 9,-10 21,-15 37,-15 10,0 19,2 27,5l-3 9c-9,-3 -17,-5 -24,-5 -13,0 -23,4 -30,13 -7,8 -11,20 -11,35 0,15 4,26 11,35 7,8 16,12 28,12 10,0 19,-2 28,-5l0 9c-7,3 -16,5 -27,5zm91 0c-16,0 -28,-5 -37,-15 -9,-9 -13,-23 -13,-41 0,-17 4,-31 13,-41 8,-11 20,-16 34,-16 13,0 23,5 31,14 7,8 11,20 11,36l0 8 -79 0c1,15 4,26 11,34 7,8 17,12 29,12 6,0 12,0 17,-1 4,-1 10,-3 17,-6l0 9c-6,3 -11,5 -17,6 -5,1 -10,1 -17,1zm-3 -104c-10,0 -18,3 -25,10 -6,7 -10,17 -11,30l67 0c0,-13 -2,-22 -8,-30 -5,-7 -13,-10 -23,-10zm185 102l-3 -17 -1 0c-5,7 -11,12 -16,15 -6,3 -13,4 -21,4 -11,0 -19,-3 -25,-8 -6,-6 -9,-13 -9,-23 0,-11 5,-19 14,-25 8,-6 21,-9 38,-9l21 -1 0 -7c0,-10 -2,-18 -7,-23 -4,-5 -11,-8 -20,-8 -10,0 -20,3 -31,8l-4 -8c12,-6 24,-9 35,-9 12,0 21,3 27,10 6,6 9,16 9,29l0 72 -7 0zm-40 -7c11,0 21,-3 27,-10 7,-7 10,-16 10,-28l0 -10 -19 0c-15,1 -26,4 -32,8 -7,4 -10,10 -10,18 0,7 2,13 6,16 4,4 10,6 18,6zm152 7l0 -71c0,-10 -2,-18 -7,-23 -5,-5 -12,-8 -21,-8 -13,0 -23,3 -29,10 -6,7 -9,17 -9,32l0 60 -10 0 0 -109 8 0 2 15 1 0c7,-11 20,-17 38,-17 24,0 37,13 37,40l0 71 -10 0zm78 -111c8,0 15,2 21,4 5,3 11,8 15,15l1 0c-1,-8 -1,-16 -1,-25l0 -39 10 0 0 156 -7 0 -2 -17 -1 0c-8,13 -20,19 -35,19 -15,0 -27,-5 -35,-14 -8,-9 -12,-23 -12,-41 0,-19 4,-33 12,-43 8,-10 19,-15 34,-15zm0 9c-12,0 -20,4 -26,13 -6,8 -9,20 -9,36 0,31 12,46 36,46 12,0 21,-3 27,-10 5,-7 8,-19 8,-36l0 -1c0,-17 -3,-29 -8,-37 -6,-7 -15,-11 -28,-11zm170 102l-10 0 0 -137 -48 0 0 -9 106 0 0 9 -48 0 0 137zm90 2c-16,0 -28,-5 -37,-15 -9,-9 -13,-23 -13,-41 0,-17 4,-31 13,-41 8,-11 20,-16 34,-16 13,0 23,5 31,14 7,8 11,20 11,36l0 8 -79 0c0,15 4,26 11,34 7,8 16,12 29,12 6,0 12,0 16,-1 5,-1 11,-3 18,-6l0 9c-6,3 -11,5 -17,6 -5,1 -11,1 -17,1zm-3 -104c-10,0 -19,3 -25,10 -6,7 -10,17 -11,30l67 0c0,-13 -3,-22 -8,-30 -6,-7 -13,-10 -23,-10zm109 104c-16,0 -28,-5 -37,-15 -9,-10 -13,-23 -13,-41 0,-18 5,-32 14,-42 9,-10 21,-15 37,-15 10,0 19,2 27,5l-2 9c-10,-3 -18,-5 -25,-5 -13,0 -23,4 -30,13 -7,8 -11,20 -11,35 0,15 4,26 11,35 7,8 16,12 29,12 9,0 19,-2 27,-5l0 9c-7,3 -16,5 -27,5zm123 -2l0 -71c0,-10 -2,-18 -7,-23 -4,-5 -11,-8 -21,-8 -13,0 -23,3 -29,10 -6,7 -9,17 -9,32l0 60 -10 0 0 -156 10 0 0 50 0 14 1 0c4,-7 9,-11 15,-14 6,-3 14,-5 23,-5 25,0 37,13 37,40l0 71 -10 0zm115 0l0 -71c0,-10 -2,-18 -7,-23 -5,-5 -12,-8 -21,-8 -13,0 -23,3 -29,10 -6,7 -9,17 -9,32l0 60 -10 0 0 -109 8 0 2 15 1 0c7,-11 20,-17 38,-17 24,0 37,13 37,40l0 71 -10 0zm128 -55c0,18 -4,32 -12,42 -9,10 -21,15 -36,15 -10,0 -18,-2 -25,-7 -7,-5 -13,-11 -17,-20 -4,-8 -6,-18 -6,-30 0,-17 5,-31 13,-41 9,-10 21,-15 36,-15 15,0 26,5 35,15 8,10 12,24 12,41zm-85 0c0,15 3,27 10,35 6,9 15,13 27,13 12,0 22,-4 28,-13 7,-8 10,-20 10,-35 0,-15 -3,-26 -10,-34 -6,-9 -16,-13 -28,-13 -12,0 -21,4 -28,13 -6,8 -9,19 -9,34zm119 55l-10 0 0 -156 10 0 0 156zm120 -55c0,18 -4,32 -13,42 -8,10 -20,15 -35,15 -10,0 -18,-2 -25,-7 -8,-5 -13,-11 -17,-20 -4,-8 -6,-18 -6,-30 0,-17 4,-31 13,-41 9,-10 20,-15 35,-15 15,0 27,5 36,15 8,10 12,24 12,41zm-85 0c0,15 3,27 9,35 7,9 16,13 28,13 12,0 22,-4 28,-13 7,-8 10,-20 10,-35 0,-15 -3,-26 -10,-34 -7,-9 -16,-13 -28,-13 -12,0 -21,4 -28,13 -6,8 -9,19 -9,34zm194 -54l0 7 -22 1c5,8 8,16 8,25 0,11 -3,19 -10,26 -7,6 -16,9 -28,9 -5,0 -8,0 -10,0 -4,2 -7,4 -9,7 -2,3 -3,6 -3,9 0,3 1,6 3,8 3,1 7,2 14,2l19 0c11,0 21,2 27,7 6,5 9,12 9,21 0,12 -4,21 -14,27 -9,6 -22,9 -39,9 -14,0 -25,-3 -32,-8 -8,-5 -11,-12 -11,-22 0,-7 2,-13 6,-18 5,-5 11,-9 19,-10 -3,-2 -6,-4 -8,-6 -2,-3 -2,-6 -2,-9 0,-7 4,-14 13,-19 -6,-3 -11,-7 -14,-13 -4,-5 -6,-12 -6,-19 0,-11 4,-19 11,-26 7,-7 16,-10 28,-10 7,0 12,1 16,2l35 0zm-88 127c0,15 11,23 33,23 29,0 43,-9 43,-28 0,-6 -2,-11 -7,-14 -4,-3 -11,-4 -21,-4l-18 0c-20,0 -30,8 -30,23zm8 -93c0,9 3,15 8,20 5,4 12,7 20,7 9,0 16,-3 21,-7 5,-5 7,-12 7,-20 0,-10 -2,-16 -7,-21 -5,-5 -12,-7 -21,-7 -8,0 -15,2 -20,7 -5,5 -8,12 -8,21zm78 -34l10 0 23 61c7,19 12,32 13,38l1 0c3,-8 7,-21 14,-38l23 -61 10 0 -49 126c-4,11 -7,18 -10,21 -2,4 -5,7 -9,8 -4,2 -8,3 -13,3 -4,0 -8,-1 -13,-2l0 -9c4,2 8,2 13,2 3,0 6,-1 9,-2 2,-2 5,-4 7,-8 2,-3 4,-8 7,-16 3,-7 5,-12 5,-14l-41 -109z"/>
   <polygon class="fil1" points="6861,48 4361,48 4361,31 6861,31 "/>
   <polygon class="fil1" points="6861,102 4361,102 4361,85 6861,85 "/>
  </g>
 </g>
</svg>
